<svg width="24" height="25" viewBox="0 0 24 25" fill="none" xmlns="http://www.w3.org/2000/svg">
<path fill-rule="evenodd" clip-rule="evenodd" d="M13.95 20.781C16.622 17.662 20 13.718 20 10.171C20 5.935 16.642 2.5 12.5 2.5C8.358 2.5 5 5.935 5 10.171C5 13.718 8.378 17.662 11.05 20.781C11.57 21.389 12.064 21.964 12.5 22.5C12.936 21.964 13.43 21.389 13.95 20.781ZM12.5 12.5C12.8611 12.5 13.2187 12.4289 13.5524 12.2907C13.886 12.1525 14.1892 11.9499 14.4445 11.6945C14.6999 11.4392 14.9025 11.136 15.0407 10.8024C15.1789 10.4687 15.25 10.1111 15.25 9.75C15.25 9.38886 15.1789 9.03127 15.0407 8.69762C14.9025 8.36398 14.6999 8.06082 14.4445 7.80546C14.1892 7.5501 13.886 7.34753 13.5524 7.20933C13.2187 7.07113 12.8611 7 12.5 7C11.7707 7 11.0712 7.28973 10.5555 7.80546C10.0397 8.32118 9.75 9.02065 9.75 9.75C9.75 10.4793 10.0397 11.1788 10.5555 11.6945C11.0712 12.2103 11.7707 12.5 12.5 12.5Z" fill="#F1F1F1"/>
</svg>
