<svg width="24" height="25" viewBox="0 0 24 25" fill="none" xmlns="http://www.w3.org/2000/svg">
<path d="M20.9904 17.9162C20.9498 17.6655 20.7927 17.4512 20.5574 17.3239L17.076 15.2721L17.0473 15.2561C16.9013 15.1831 16.7402 15.1456 16.5769 15.1468C16.2852 15.1468 16.0067 15.2573 15.8134 15.4512L14.7858 16.4795C14.7419 16.5213 14.5986 16.5818 14.5551 16.584C14.5432 16.583 13.3595 16.4977 11.1804 14.3177C9.0051 12.1423 8.91281 10.9546 8.91208 10.9546C8.9133 10.8939 8.97304 10.751 9.01554 10.7068L9.89177 9.83056C10.2004 9.52107 10.293 9.00801 10.1099 8.61058L8.17477 4.96836C8.03415 4.67879 7.76094 4.5 7.45785 4.5C7.24341 4.5 7.03649 4.58891 6.87475 4.75046L4.48624 7.13431C4.25723 7.36217 4.06003 7.76058 4.01704 8.08124C3.99615 8.23453 3.57237 11.8935 8.58738 16.9107C12.8449 21.169 16.1648 21.4998 17.0816 21.4998C17.1932 21.5011 17.3048 21.4953 17.4158 21.4826C17.7354 21.4398 18.1332 21.2431 18.3607 21.0149L20.7473 18.6279C20.942 18.4321 21.0309 18.1734 20.9904 17.9162Z" fill="#F1F1F1"/>
</svg>
