<svg width="158" height="20" viewBox="0 0 158 20" fill="none" xmlns="http://www.w3.org/2000/svg">
<path d="M9.98366 12.3368C9.98366 11.9767 9.84733 11.6323 9.57469 11.3035C9.30204 10.959 8.8209 10.7633 8.13127 10.7163C7.6822 11.2487 7.13691 11.5148 6.49539 11.5148C5.9501 11.5148 5.485 11.3269 5.10008 10.9512C4.71517 10.5754 4.52272 10.1135 4.52272 9.56551C4.52272 9.01751 4.71517 8.55562 5.10008 8.17985C5.485 7.80408 5.9501 7.61619 6.49539 7.61619C6.78408 7.61619 7.06474 7.69448 7.33739 7.85105C7.62607 8.00762 7.88268 8.19551 8.10721 8.41471C8.46005 8.39905 8.73269 8.34425 8.92515 8.25031C9.1176 8.15637 9.25393 8.04677 9.33412 7.92151C9.43035 7.78059 9.48648 7.62402 9.50252 7.45179C9.51855 7.27956 9.52657 7.10733 9.52657 6.9351V4.56304C9.52657 4.17161 9.39827 3.8115 9.14166 3.48269C8.90109 3.15389 8.4841 2.98949 7.8907 2.98949H2.86278L2.83873 18.4901C2.83873 18.8033 2.68637 19.0459 2.38164 19.2182C2.09296 19.3747 1.7722 19.453 1.41936 19.453C0.473121 19.453 0 19.0773 0 18.3257V2.02658C0 1.46292 0.144342 1.08714 0.433026 0.899257C0.737748 0.711372 1.0986 0.617429 1.51559 0.617429H8.49212C8.90911 0.617429 9.35016 0.695715 9.81526 0.852286C10.2964 1.00886 10.7455 1.22023 11.1624 1.4864H11.1384C11.5554 1.78389 11.8601 2.17532 12.0526 2.66069C12.2611 3.14606 12.3653 3.70972 12.3653 4.35167V7.00556C12.3653 7.63185 12.229 8.14854 11.9563 8.55562C11.6837 8.94705 11.395 9.2602 11.0903 9.49506C11.2988 9.62031 11.4992 9.7534 11.6917 9.89431C11.8842 10.0196 12.0445 10.1605 12.1728 10.3171C12.3813 10.5363 12.5417 10.7946 12.654 11.0921C12.7823 11.3896 12.8464 11.7419 12.8464 12.1489V15.5074C12.8464 16.7913 12.3332 17.7386 11.3068 18.3492C10.7936 18.6623 10.3044 18.8972 9.83931 19.0538C9.39025 19.2103 8.94119 19.2886 8.49212 19.2886H4.93169C4.65904 19.2886 4.44253 19.179 4.28215 18.9598C4.1378 18.7406 4.06563 18.451 4.06563 18.0909C4.06563 17.308 4.40243 16.9166 5.07603 16.9166H8.37184C8.96524 16.9166 9.38223 16.7522 9.6228 16.4234C9.86337 16.0946 9.98366 15.7266 9.98366 15.3195V12.3368Z" fill="#00EAFF"/>
<path d="M22.7722 2.91904L17.5037 18.7015V18.678C17.4075 18.9129 17.2712 19.1086 17.0948 19.2651C16.9344 19.4061 16.7339 19.4765 16.4933 19.4765C16.365 19.4765 16.2367 19.4609 16.1084 19.4295C15.9962 19.4139 15.8759 19.3904 15.7476 19.3591H15.7716C14.8575 19.0773 14.5207 18.5762 14.7612 17.856L20.2462 1.58035C20.3264 1.32983 20.4627 1.11846 20.6552 0.94623C20.8637 0.774001 21.1043 0.672229 21.3769 0.640914C21.6495 0.593942 21.9142 0.562628 22.1708 0.546971C22.4274 0.515657 22.6279 0.5 22.7722 0.5C22.9166 0.5 23.117 0.515657 23.3736 0.546971C23.6302 0.562628 23.8949 0.586114 24.1675 0.617429C24.392 0.648743 24.6086 0.766172 24.8171 0.969715C25.0416 1.17326 25.21 1.3768 25.3223 1.58035C26.2204 4.27338 27.1265 6.9899 28.0407 9.72991C28.9709 12.4543 29.8851 15.163 30.7832 17.856C31.0077 18.5762 30.6709 19.0773 29.7728 19.3591C29.6445 19.3904 29.5242 19.4139 29.4119 19.4295C29.3157 19.4609 29.2034 19.4765 29.0751 19.4765C28.8506 19.4765 28.6421 19.4061 28.4497 19.2651C28.2732 19.1086 28.1449 18.9129 28.0648 18.678V18.7015L22.7722 2.91904ZM24.5765 13.6286C24.5765 14.1296 24.392 14.5602 24.0232 14.9203C23.6703 15.2647 23.2373 15.437 22.7241 15.437C22.2109 15.437 21.7779 15.2647 21.425 14.9203C21.0722 14.5602 20.8958 14.1296 20.8958 13.6286C20.8958 13.1275 21.0722 12.7048 21.425 12.3603C21.7779 12.0002 22.2109 11.8201 22.7241 11.8201C23.2373 11.8201 23.6703 12.0002 24.0232 12.3603C24.392 12.7048 24.5765 13.1275 24.5765 13.6286Z" fill="#00EAFF"/>
<path d="M39.7456 11.5383H37.8932C37.6205 11.5383 37.404 11.4365 37.2436 11.233C37.0993 11.0138 37.0271 10.7241 37.0271 10.364C37.0271 9.56551 37.3639 9.16625 38.0375 9.16625H40.8522C41.4456 9.16625 41.8626 9.00185 42.1031 8.67305C42.3437 8.34425 42.464 7.98414 42.464 7.59271V4.56304C42.464 4.17161 42.3437 3.8115 42.1031 3.48269C41.8626 3.15389 41.4456 2.98949 40.8522 2.98949H35.7761V18.3022C35.7761 19.0538 35.303 19.4295 34.3568 19.4295C33.4105 19.4295 32.9374 19.0538 32.9374 18.3022V2.02658C32.9374 1.46292 33.0818 1.08714 33.3704 0.899257C33.6752 0.711372 34.036 0.617429 34.453 0.617429H41.4536C41.8706 0.617429 42.3036 0.703543 42.7527 0.875772C43.2017 1.048 43.6348 1.2672 44.0518 1.53337H44.0277C44.4447 1.83086 44.7654 2.22229 44.99 2.70766C45.2145 3.17738 45.3268 3.72538 45.3268 4.35167V7.78059C45.3268 9.04883 44.8937 9.99609 44.0277 10.6224C43.8513 10.7476 43.6588 10.8651 43.4503 10.9747C43.2579 11.0843 43.0574 11.1939 42.8489 11.3035L46.698 17.5037C46.7461 17.582 46.7943 17.6838 46.8424 17.809C46.8905 17.9343 46.9145 18.0361 46.9145 18.1143C46.9145 18.4901 46.6419 18.8502 46.0966 19.1947V19.1712C45.7277 19.3904 45.415 19.5 45.1584 19.5C44.7895 19.5 44.4928 19.3199 44.2683 18.9598L44.2923 18.9833L39.7456 11.5383Z" fill="#00EAFF"/>
<path d="M59.1314 12.3368C59.1314 11.9767 58.995 11.6323 58.7224 11.3035C58.4497 10.959 57.9686 10.7633 57.279 10.7163C56.8299 11.2487 56.2846 11.5148 55.6431 11.5148C55.0978 11.5148 54.6327 11.3269 54.2478 10.9512C53.8629 10.5754 53.6704 10.1135 53.6704 9.56551C53.6704 9.01751 53.8629 8.55562 54.2478 8.17985C54.6327 7.80408 55.0978 7.61619 55.6431 7.61619C55.9318 7.61619 56.2124 7.69448 56.4851 7.85105C56.7738 8.00762 57.0304 8.19551 57.2549 8.41471C57.6078 8.39905 57.8804 8.34425 58.0729 8.25031C58.2653 8.15637 58.4016 8.04677 58.4818 7.92151C58.5781 7.78059 58.6342 7.62402 58.6502 7.45179C58.6663 7.27956 58.6743 7.10733 58.6743 6.9351V4.56304C58.6743 4.17161 58.546 3.8115 58.2894 3.48269C58.0488 3.15389 57.6318 2.98949 57.0384 2.98949H52.0105L51.9864 18.4901C51.9864 18.8033 51.8341 19.0459 51.5293 19.2182C51.2407 19.3747 50.9199 19.453 50.5671 19.453C49.6208 19.453 49.1477 19.0773 49.1477 18.3257V2.02658C49.1477 1.46292 49.292 1.08714 49.5807 0.899257C49.8855 0.711372 50.2463 0.617429 50.6633 0.617429H57.6398C58.0568 0.617429 58.4979 0.695715 58.963 0.852286C59.4441 1.00886 59.8932 1.22023 60.3102 1.4864H60.2861C60.7031 1.78389 61.0078 2.17532 61.2003 2.66069C61.4088 3.14606 61.513 3.70972 61.513 4.35167V7.00556C61.513 7.63185 61.3767 8.14854 61.104 8.55562C60.8314 8.94705 60.5427 9.2602 60.238 9.49506C60.4465 9.62031 60.647 9.7534 60.8394 9.89431C61.0319 10.0196 61.1922 10.1605 61.3205 10.3171C61.529 10.5363 61.6894 10.7946 61.8017 11.0921C61.93 11.3896 61.9941 11.7419 61.9941 12.1489V15.5074C61.9941 16.7913 61.4809 17.7386 60.4545 18.3492C59.9413 18.6623 59.4521 18.8972 58.987 19.0538C58.538 19.2103 58.0889 19.2886 57.6398 19.2886H54.0794C53.8067 19.2886 53.5902 19.179 53.4299 18.9598C53.2855 18.7406 53.2133 18.451 53.2133 18.0909C53.2133 17.308 53.5501 16.9166 54.2237 16.9166H57.5195C58.1129 16.9166 58.5299 16.7522 58.7705 16.4234C59.0111 16.0946 59.1314 15.7266 59.1314 15.3195V12.3368Z" fill="#00EAFF"/>
<path d="M67.1326 19.2886C66.5392 19.2886 66.1382 19.1399 65.9297 18.8424C65.7212 18.5449 65.617 18.2161 65.617 17.856V2.02658C65.617 1.66646 65.7212 1.34549 65.9297 1.06366C66.1382 0.766172 66.5392 0.617429 67.1326 0.617429H75.5044C76.0978 0.617429 76.4106 1.00886 76.4426 1.79172C76.4747 2.59023 76.162 2.98949 75.5044 2.98949H68.4557V16.9166H75.9374C76.5308 16.9166 76.8356 17.3002 76.8516 18.0674C76.8837 18.8815 76.5789 19.2886 75.9374 19.2886H67.1326ZM74.6143 9.56551C74.6143 10.1135 74.4138 10.5754 74.0129 10.9512C73.628 11.3269 73.1548 11.5148 72.5935 11.5148C72.0482 11.5148 71.5831 11.3269 71.1982 10.9512C70.8133 10.5754 70.6208 10.1135 70.6208 9.56551C70.6208 9.01751 70.8133 8.55562 71.1982 8.17985C71.5831 7.80408 72.0482 7.61619 72.5935 7.61619C73.1548 7.61619 73.628 7.80408 74.0129 8.17985C74.4138 8.55562 74.6143 9.01751 74.6143 9.56551Z" fill="#00EAFF"/>
<path d="M86.262 11.5383H84.4096C84.137 11.5383 83.9205 11.4365 83.7601 11.233C83.6158 11.0138 83.5436 10.7241 83.5436 10.364C83.5436 9.56551 83.8804 9.16625 84.554 9.16625H87.3687C87.9621 9.16625 88.379 9.00185 88.6196 8.67305C88.8602 8.34425 88.9805 7.98414 88.9805 7.59271V4.56304C88.9805 4.17161 88.8602 3.8115 88.6196 3.48269C88.379 3.15389 87.9621 2.98949 87.3687 2.98949H82.2926V18.3022C82.2926 19.0538 81.8195 19.4295 80.8733 19.4295C79.927 19.4295 79.4539 19.0538 79.4539 18.3022V2.02658C79.4539 1.46292 79.5982 1.08714 79.8869 0.899257C80.1916 0.711372 80.5525 0.617429 80.9695 0.617429H87.9701C88.3871 0.617429 88.8201 0.703543 89.2691 0.875772C89.7182 1.048 90.1512 1.2672 90.5682 1.53337H90.5442C90.9612 1.83086 91.2819 2.22229 91.5065 2.70766C91.731 3.17738 91.8432 3.72538 91.8432 4.35167V7.78059C91.8432 9.04883 91.4102 9.99609 90.5442 10.6224C90.3678 10.7476 90.1753 10.8651 89.9668 10.9747C89.7743 11.0843 89.5739 11.1939 89.3654 11.3035L93.2145 17.5037C93.2626 17.582 93.3107 17.6838 93.3588 17.809C93.407 17.9343 93.431 18.0361 93.431 18.1143C93.431 18.4901 93.1584 18.8502 92.6131 19.1947V19.1712C92.2442 19.3904 91.9315 19.5 91.6749 19.5C91.306 19.5 91.0093 19.3199 90.7847 18.9598L90.8088 18.9833L86.262 11.5383Z" fill="#00EAFF"/>
<path d="M104.782 8.53214C105.199 8.53214 105.632 8.61825 106.081 8.79048C106.53 8.96271 106.963 9.18974 107.38 9.47157H107.356C107.773 9.7534 108.094 10.137 108.318 10.6224C108.543 11.1077 108.655 11.6636 108.655 12.2899V15.5074C108.655 16.7756 108.222 17.7229 107.356 18.3492C106.939 18.6467 106.506 18.8815 106.057 19.0538C105.624 19.2103 105.199 19.2886 104.782 19.2886H99.5374C99.1204 19.2886 98.6873 19.2103 98.2383 19.0538C97.8053 18.8815 97.3802 18.6467 96.9632 18.3492C96.0972 17.7229 95.6642 16.7756 95.6642 15.5074V13.9574C95.6642 13.2215 96.1373 12.8535 97.0835 12.8535C98.0458 12.8535 98.527 13.2215 98.527 13.9574V15.3195C98.527 15.7266 98.6472 16.0946 98.8878 16.4234C99.1284 16.7522 99.5454 16.9166 100.139 16.9166H104.18C104.774 16.9166 105.191 16.7522 105.431 16.4234C105.672 16.0946 105.792 15.7266 105.792 15.3195V12.4778C105.792 12.0863 105.672 11.7262 105.431 11.3974C105.191 11.0529 104.774 10.8807 104.18 10.8807H99.5374C98.7034 10.8807 97.8453 10.5832 96.9632 9.98826C96.0972 9.33066 95.6642 8.3834 95.6642 7.14648V4.35167C95.6642 3.72538 95.7764 3.17738 96.001 2.70766C96.2255 2.22229 96.5463 1.83086 96.9632 1.53337H96.9392C97.3562 1.2672 97.7892 1.048 98.2383 0.875772C98.6873 0.703543 99.1204 0.617429 99.5374 0.617429H104.782C105.199 0.617429 105.632 0.703543 106.081 0.875772C106.53 1.048 106.963 1.2672 107.38 1.53337H107.356C107.773 1.83086 108.094 2.22229 108.318 2.70766C108.543 3.17738 108.655 3.72538 108.655 4.35167V5.73733C108.655 6.47322 108.174 6.84116 107.212 6.84116C106.265 6.84116 105.792 6.47322 105.792 5.73733V4.56304C105.792 4.17161 105.672 3.8115 105.431 3.48269C105.191 3.15389 104.774 2.98949 104.18 2.98949H100.139C99.5454 2.98949 99.1284 3.15389 98.8878 3.48269C98.6472 3.8115 98.527 4.17161 98.527 4.56304V6.95859C98.527 7.36568 98.6472 7.73362 98.8878 8.06242C99.1284 8.37557 99.5454 8.53214 100.139 8.53214H104.782Z" fill="#00EAFF"/>
<path d="M122.614 1.62732C122.614 0.875772 123.088 0.5 124.034 0.5C124.996 0.5 125.477 0.875772 125.477 1.62732V18.2787C125.477 19.0303 124.996 19.4061 124.034 19.4061C123.088 19.4061 122.614 19.0303 122.614 18.2787V1.62732ZM115.301 18.2787C115.301 19.0303 114.82 19.4061 113.858 19.4061C112.911 19.4061 112.438 19.0303 112.438 18.2787V1.62732C112.438 0.875772 112.911 0.5 113.858 0.5C114.82 0.5 115.301 0.875772 115.301 1.62732V18.2787ZM120.93 9.56551C120.93 10.1135 120.738 10.5754 120.353 10.9512C119.968 11.3269 119.495 11.5148 118.934 11.5148C118.388 11.5148 117.923 11.3269 117.538 10.9512C117.153 10.5754 116.961 10.1135 116.961 9.56551C116.961 9.01751 117.153 8.55562 117.538 8.17985C117.923 7.80408 118.388 7.61619 118.934 7.61619C119.495 7.61619 119.968 7.80408 120.353 8.17985C120.738 8.55562 120.93 9.01751 120.93 9.56551Z" fill="#00EAFF"/>
<path d="M138.095 0.617429C138.512 0.617429 138.945 0.703543 139.394 0.875772C139.843 1.048 140.276 1.2672 140.693 1.53337H140.669C141.086 1.83086 141.406 2.22229 141.631 2.70766C141.855 3.17738 141.968 3.72538 141.968 4.35167V15.5074C141.968 16.7756 141.535 17.7229 140.669 18.3492C140.252 18.6467 139.819 18.8815 139.37 19.0538C138.937 19.2103 138.512 19.2886 138.095 19.2886H132.85C132.433 19.2886 132 19.2103 131.551 19.0538C131.118 18.8815 130.693 18.6467 130.276 18.3492C129.859 18.0361 129.538 17.6525 129.314 17.1984C129.089 16.7287 128.977 16.165 128.977 15.5074V4.35167C128.977 3.72538 129.089 3.17738 129.314 2.70766C129.538 2.22229 129.859 1.83086 130.276 1.53337H130.252C130.669 1.2672 131.102 1.048 131.551 0.875772C132 0.703543 132.433 0.617429 132.85 0.617429H138.095ZM137.493 16.9166C138.087 16.9166 138.503 16.7522 138.744 16.4234C138.985 16.0946 139.105 15.7266 139.105 15.3195V4.56304C139.105 4.17161 138.985 3.8115 138.744 3.48269C138.503 3.15389 138.087 2.98949 137.493 2.98949H133.452C132.858 2.98949 132.441 3.15389 132.201 3.48269C131.96 3.8115 131.84 4.17161 131.84 4.56304V15.3195C131.84 15.7266 131.96 16.0946 132.201 16.4234C132.441 16.7522 132.858 16.9166 133.452 16.9166H137.493Z" fill="#00EAFF"/>
<path d="M150.831 12.3603C150.558 12.3603 150.342 12.2585 150.181 12.055C150.037 11.8358 149.965 11.5461 149.965 11.186C149.965 10.3875 150.302 9.98826 150.975 9.98826H153.525C154.119 9.98826 154.536 9.82386 154.776 9.49506C155.033 9.16625 155.161 8.80614 155.161 8.41471V4.56304C155.161 4.17161 155.033 3.8115 154.776 3.48269C154.536 3.15389 154.119 2.98949 153.525 2.98949H148.473V18.3257C148.473 19.0773 147.992 19.453 147.03 19.453C146.1 19.453 145.635 19.0773 145.635 18.3257V2.02658C145.635 1.46292 145.779 1.08714 146.068 0.899257C146.356 0.711372 146.709 0.617429 147.126 0.617429H154.151C154.552 0.617429 154.977 0.703543 155.426 0.875772C155.875 1.048 156.308 1.2672 156.725 1.53337H156.701C157.118 1.83086 157.439 2.22229 157.663 2.70766C157.888 3.17738 158 3.72538 158 4.35167V8.6026C158 9.87083 157.567 10.8181 156.701 11.4444C156.284 11.7419 155.859 11.9689 155.426 12.1255C154.993 12.282 154.568 12.3603 154.151 12.3603H150.831Z" fill="#00EAFF"/>
</svg>
