<svg width="40" height="40" viewBox="0 0 40 40" fill="none" xmlns="http://www.w3.org/2000/svg">
<rect width="40" height="40" rx="10" fill="#2C2C2C"/>
<path d="M27 11L21 17L23 19L30 12V11M20 20.5C19.8674 20.5 19.7402 20.4473 19.6464 20.3536C19.5527 20.2598 19.5 20.1326 19.5 20C19.5 19.8674 19.5527 19.7402 19.6464 19.6464C19.7402 19.5527 19.8674 19.5 20 19.5C20.1326 19.5 20.2598 19.5527 20.3536 19.6464C20.4473 19.7402 20.5 19.8674 20.5 20C20.5 20.1326 20.4473 20.2598 20.3536 20.3536C20.2598 20.4473 20.1326 20.5 20 20.5ZM14 28C13.4696 28 12.9609 27.7893 12.5858 27.4142C12.2107 27.0391 12 26.5304 12 26C12 25.4696 12.2107 24.9609 12.5858 24.5858C12.9609 24.2107 13.4696 24 14 24C14.5304 24 15.0391 24.2107 15.4142 24.5858C15.7893 24.9609 16 25.4696 16 26C16 26.5304 15.7893 27.0391 15.4142 27.4142C15.0391 27.7893 14.5304 28 14 28ZM14 16C13.4696 16 12.9609 15.7893 12.5858 15.4142C12.2107 15.0391 12 14.5304 12 14C12 13.4696 12.2107 12.9609 12.5858 12.5858C12.9609 12.2107 13.4696 12 14 12C14.5304 12 15.0391 12.2107 15.4142 12.5858C15.7893 12.9609 16 13.4696 16 14C16 14.5304 15.7893 15.0391 15.4142 15.4142C15.0391 15.7893 14.5304 16 14 16ZM17.64 15.64C17.87 15.14 18 14.59 18 14C18 12.9391 17.5786 11.9217 16.8284 11.1716C16.0783 10.4214 15.0609 10 14 10C12.9391 10 11.9217 10.4214 11.1716 11.1716C10.4214 11.9217 10 12.9391 10 14C10 15.0609 10.4214 16.0783 11.1716 16.8284C11.9217 17.5786 12.9391 18 14 18C14.59 18 15.14 17.87 15.64 17.64L18 20L15.64 22.36C15.14 22.13 14.59 22 14 22C12.9391 22 11.9217 22.4214 11.1716 23.1716C10.4214 23.9217 10 24.9391 10 26C10 27.0609 10.4214 28.0783 11.1716 28.8284C11.9217 29.5786 12.9391 30 14 30C15.0609 30 16.0783 29.5786 16.8284 28.8284C17.5786 28.0783 18 27.0609 18 26C18 25.41 17.87 24.86 17.64 24.36L20 22L27 29H30V28L17.64 15.64Z" fill="#00EAFF"/>
</svg>
