<svg width="100" height="33" viewBox="0 0 100 33" fill="none" xmlns="http://www.w3.org/2000/svg">
<path d="M51.7137 0.723653C52.1119 0.241218 52.5631 0 53.0675 0C53.6249 0 54.1956 0.254619 54.7795 0.763858C55.0715 1.05868 55.3104 1.3535 55.4962 1.64832C55.7085 1.94315 55.8147 2.23797 55.8147 2.53279C55.8147 3.01523 55.6422 3.43066 55.2971 3.77909L49.9618 10.0508L39.57 22.3931V30.4739C39.57 31.7604 38.7737 32.4037 37.1811 32.4037C35.615 32.4037 34.8319 31.7604 34.8319 30.4739V1.96995C34.8319 0.683451 35.615 0.0402025 37.1811 0.0402025C38.7737 0.0402025 39.57 0.683451 39.57 1.96995V15.1163L51.7137 0.723653ZM46.0599 19.8201C45.7945 19.4449 45.6618 18.9892 45.6618 18.4532C45.6618 17.6491 45.9936 17.0059 46.6572 16.5235H46.6173C47.1482 16.1482 47.6791 15.9606 48.21 15.9606C48.7143 15.9606 49.139 16.2554 49.4841 16.8451L57.1685 28.1823L57.1286 28.1421C57.3675 28.5174 57.487 28.9194 57.487 29.3482C57.487 30.0451 57.1419 30.6615 56.4518 31.1976H56.4916C56.1996 31.3852 55.9209 31.5326 55.6555 31.6398C55.39 31.747 55.1511 31.8006 54.9388 31.8006C54.7264 31.8006 54.5008 31.7202 54.2619 31.5594C54.0496 31.3986 53.8372 31.1976 53.6249 30.9563L46.0599 19.8201Z" fill="#00EAFF"/>
<path d="M66.6194 32.2026C65.9292 32.2026 65.2125 32.0686 64.4693 31.8006C63.7526 31.5058 63.0492 31.1038 62.3591 30.5945C60.9523 29.5492 60.2489 27.9277 60.2489 25.7299V22.9961C60.2489 21.7364 61.0319 21.1066 62.598 21.1066C64.1375 21.1066 64.9073 21.7364 64.9073 22.9961V25.4083C64.9073 26.1052 65.1064 26.735 65.5045 27.2979C65.9292 27.8607 66.6326 28.1421 67.6147 28.1421H70.2028C71.1849 28.1421 71.875 27.8607 72.2732 27.2979C72.6979 26.735 72.9102 26.1052 72.9102 25.4083V19.0964C72.9102 18.4264 72.7111 17.8099 72.313 17.2471C71.9148 16.6575 71.2114 16.3626 70.2028 16.3626H63.1156C62.3193 16.3626 61.6955 16.1884 61.2443 15.84C60.8196 15.4916 60.6072 14.8885 60.6072 14.0309V2.6534C60.6072 2.43898 60.6338 2.21117 60.6868 1.96995C60.7399 1.72873 60.8196 1.44731 60.9257 1.12569V1.20609C61.2443 0.562842 61.9742 0.241218 63.1156 0.241218H75.8566C76.8387 0.241218 77.3563 0.911269 77.4094 2.25137C77.4624 3.61827 76.9448 4.30173 75.8566 4.30173H65.3453V12.3423H71.238C72.6182 12.3423 74.025 12.865 75.4584 13.9103C76.8918 14.8751 77.6084 16.4967 77.6084 18.7748V25.7299C77.6084 26.8556 77.4226 27.8205 77.051 28.6246C76.6794 29.4018 76.1485 30.0585 75.4584 30.5945C74.7683 31.1038 74.0516 31.5058 73.3084 31.8006C72.5917 32.0686 71.9015 32.2026 71.238 32.2026H66.6194Z" fill="#00EAFF"/>
<path d="M89.4489 32.2026C88.7588 32.2026 88.0421 32.0686 87.2988 31.8006C86.5822 31.5058 85.8788 31.1038 85.1886 30.5945C84.4985 30.0585 83.9543 29.4018 83.5562 28.6246C83.1846 27.8205 82.9988 26.8556 82.9988 25.7299V22.9961C82.9988 21.7364 83.7818 21.1066 85.3479 21.1066C86.914 21.1066 87.697 21.7364 87.697 22.9961V25.4083C87.697 26.1052 87.8961 26.735 88.2942 27.2979C88.7189 27.8607 89.4223 28.1421 90.4045 28.1421H92.5943C93.5764 28.1421 94.2666 27.8607 94.6647 27.2979C95.0894 26.735 95.3018 26.1052 95.3018 25.4083V20.5438C95.3018 19.8737 95.1027 19.2573 94.7045 18.6944C94.3064 18.1048 93.603 17.8099 92.5943 17.8099H89.7674C88.7588 17.8099 88.2544 17.1533 88.2544 15.84C88.2544 14.4731 88.7588 13.7896 89.7674 13.7896H92.5943C93.6826 13.7896 94.3993 13.5216 94.7444 12.9856C95.116 12.4227 95.3018 11.7929 95.3018 11.096V6.99533C95.3018 6.32528 95.0894 5.70883 94.6647 5.14599C94.2666 4.58315 93.5764 4.30173 92.5943 4.30173H90.4045C89.4223 4.30173 88.7189 4.58315 88.2942 5.14599C87.8961 5.70883 87.697 6.32528 87.697 6.99533V8.60345C87.697 9.86315 86.914 10.493 85.3479 10.493C83.7818 10.493 82.9988 9.86315 82.9988 8.60345V6.6335C82.9988 5.56142 83.1846 4.62335 83.5562 3.81929C83.9543 2.98842 84.4985 2.31837 85.1886 1.80914H85.1488C85.839 1.3535 86.5556 0.978274 87.2988 0.68345C88.0421 0.388628 88.7588 0.241218 89.4489 0.241218H93.6295C94.2931 0.241218 94.9965 0.388628 95.7397 0.68345C96.483 0.978274 97.1996 1.3535 97.8898 1.80914H97.85C98.5401 2.31837 99.071 2.98842 99.4426 3.81929C99.8142 4.62335 100 5.56142 100 6.6335V11.4177C100 12.7042 99.7611 13.736 99.2833 14.5133C99.1241 14.7277 98.9648 14.9555 98.8055 15.1968C98.6463 15.438 98.5136 15.6256 98.4074 15.7596L98.9648 16.7245L99.363 17.1667C99.7877 17.8368 100 18.8552 100 20.2221V25.7299C100 26.8556 99.8142 27.8205 99.4426 28.6246C99.071 29.4018 98.5401 30.0585 97.85 30.5945C97.1598 31.1038 96.4564 31.5058 95.7397 31.8006C95.0231 32.0686 94.3196 32.2026 93.6295 32.2026H89.4489Z" fill="#00EAFF"/>
<path d="M26.7925 2.76396L18.8971 10.7362C18.0327 11.6091 18.0327 13.0153 18.8971 13.8881C19.7735 14.773 21.2034 14.773 22.0797 13.8881L30.4008 5.48604C31.1182 4.76168 31.5206 3.78343 31.5206 2.76396M15.7603 17.882C15.5513 17.882 15.3509 17.7981 15.2031 17.6489C15.0553 17.4997 14.9723 17.2973 14.9723 17.0863C14.9723 16.8753 15.0553 16.6729 15.2031 16.5237C15.3509 16.3744 15.5513 16.2906 15.7603 16.2906C15.9693 16.2906 16.1697 16.3744 16.3175 16.5237C16.4653 16.6729 16.5483 16.8753 16.5483 17.0863C16.5483 17.2973 16.4653 17.4997 16.3175 17.6489C16.1697 17.7981 15.9693 17.882 15.7603 17.882ZM6.30412 29.8173C5.46814 29.8173 4.66641 29.4819 4.07528 28.8851C3.48415 28.2882 3.15206 27.4786 3.15206 26.6345C3.15206 25.7904 3.48415 24.9809 4.07528 24.384C4.66641 23.7871 5.46814 23.4518 6.30412 23.4518C7.1401 23.4518 7.94184 23.7871 8.53297 24.384C9.12409 24.9809 9.45619 25.7904 9.45619 26.6345C9.45619 27.4786 9.12409 28.2882 8.53297 28.8851C7.94184 29.4819 7.1401 29.8173 6.30412 29.8173ZM6.30412 10.7208C5.46814 10.7208 4.66641 10.3855 4.07528 9.78861C3.48415 9.19173 3.15206 8.38219 3.15206 7.53807C3.15206 6.69396 3.48415 5.88441 4.07528 5.28753C4.66641 4.69065 5.46814 4.35533 6.30412 4.35533C7.1401 4.35533 7.94184 4.69065 8.53297 5.28753C9.12409 5.88441 9.45619 6.69396 9.45619 7.53807C9.45619 8.38219 9.12409 9.19173 8.53297 9.78861C7.94184 10.3855 7.1401 10.7208 6.30412 10.7208ZM12.0409 10.1479C12.4034 9.35223 12.6082 8.47698 12.6082 7.53807C12.6082 5.84984 11.9441 4.23076 10.7618 3.037C9.57956 1.84324 7.97608 1.17259 6.30412 1.17259C4.63217 1.17259 3.02869 1.84324 1.84644 3.037C0.664183 4.23076 0 5.84984 0 7.53807C0 9.2263 0.664183 10.8454 1.84644 12.0391C3.02869 13.2329 4.63217 13.9036 6.30412 13.9036C7.23398 13.9036 8.1008 13.6967 8.88881 13.3307L12.6082 17.0863L8.88881 20.8419C8.1008 20.4759 7.23398 20.269 6.30412 20.269C4.63217 20.269 3.02869 20.9397 1.84644 22.1334C0.664183 23.3272 0 24.9463 0 26.6345C0 28.3228 0.664183 29.9418 1.84644 31.1356C3.02869 32.3293 4.63217 33 6.30412 33C7.97608 33 9.57956 32.3293 10.7618 31.1356C11.9441 29.9418 12.6082 28.3228 12.6082 26.6345C12.6082 25.6956 12.4034 24.8204 12.0409 24.0247L15.7603 20.269L25.8133 30.4199C26.44 31.0526 27.2935 31.4086 28.1841 31.4086H30.3931C31.0158 31.4086 31.5206 30.9038 31.5206 30.2811C31.5206 29.984 31.4033 29.6988 31.1942 29.4877L12.0409 10.1479Z" fill="#00EAFF"/>
</svg>
