<svg viewBox="0 0 64 21" xmlns="http://www.w3.org/2000/svg" xmlns:xlink="http://www.w3.org/1999/xlink" width="64.000000" height="21.000000" fill="none" customFrame="#000000">
	<path id="Лого" d="M33.0968 0.460506C33.3516 0.153502 33.6404 0 33.9632 0C34.3199 0 34.6852 0.16203 35.0589 0.486091C35.2458 0.673705 35.3987 0.861319 35.5176 1.04893Q35.7214 1.33036 35.7214 1.61178C35.7214 1.91878 35.611 2.18315 35.3902 2.40487L31.9756 6.39594L25.3248 14.2502L25.3248 19.3925C25.3248 20.2112 24.8152 20.6205 23.7959 20.6205C22.7936 20.6205 22.2924 20.2112 22.2924 19.3925L22.2924 1.2536C22.2924 0.434923 22.7936 0.0255834 23.7959 0.0255834Q24.7252 0.0255834 25.0897 0.479324L25.0897 0.479343Q25.3248 0.772065 25.3248 1.2536L25.3248 9.61949L33.0968 0.460506ZM41.2604 20.2368Q41.9739 20.4926 42.6364 20.4926L45.5923 20.4926C46.017 20.4926 46.4587 20.4073 46.9174 20.2368C47.393 20.0491 47.8517 19.7933 48.2934 19.4692C48.7351 19.1281 49.0748 18.7103 49.3127 18.2156C49.5505 17.704 49.6694 17.09 49.6694 16.3736L49.6694 11.9476Q49.6694 10.2367 48.8176 9.30177L48.8176 9.30171Q48.5868 9.04835 48.2934 8.85198C47.376 8.1868 46.4757 7.85421 45.5923 7.85421L41.821 7.85421L41.821 2.73746L48.5482 2.73746C49.2447 2.73746 49.576 2.30254 49.542 1.43269C49.508 0.579898 49.1768 0.153502 48.5482 0.153502L40.394 0.153502C39.6635 0.153502 39.1963 0.358172 38.9925 0.767512L38.9925 0.716345Q38.8905 1.02335 38.8396 1.2536C38.8056 1.40711 38.7886 1.55208 38.7886 1.68853L38.7886 8.92873C38.7886 9.47452 38.9245 9.85827 39.1963 10.08C39.4851 10.3017 39.8843 10.4126 40.394 10.4126L44.9298 10.4126Q45.762 10.4126 46.1613 10.8284Q46.2266 10.8963 46.2803 10.9754C46.5351 11.3336 46.6625 11.7259 46.6625 12.1523L46.6625 16.1689C46.6625 16.6124 46.5266 17.0132 46.2548 17.3714C46 17.7295 45.5583 17.9086 44.9298 17.9086L43.2734 17.9086C42.6449 17.9086 42.1947 17.7295 41.9229 17.3714C41.6681 17.0132 41.5407 16.6124 41.5407 16.1689L41.5407 14.6339C41.5407 13.8323 41.048 13.4315 40.0627 13.4315Q39.1458 13.4315 38.7881 13.8787Q38.5593 14.1648 38.5593 14.6339L38.5593 16.3736C38.5593 17.7722 39.0095 18.8041 39.9098 19.4692C40.3515 19.7933 40.8017 20.0491 41.2604 20.2368ZM57.2473 20.4926C56.8056 20.4926 56.3469 20.4073 55.8713 20.2368C55.4126 20.0491 54.9624 19.7933 54.5207 19.4692C54.079 19.1281 53.7308 18.7103 53.476 18.2156C53.2381 17.704 53.1192 17.09 53.1192 16.3736L53.1192 14.6339C53.1192 13.8323 53.6204 13.4315 54.6227 13.4315Q55.5396 13.4315 55.8973 13.8787Q56.1261 14.1648 56.1261 14.6339L56.1261 16.1689C56.1261 16.6124 56.2535 17.0132 56.5083 17.3714C56.7801 17.7295 57.2303 17.9086 57.8589 17.9086L59.2604 17.9086C59.8889 17.9086 60.3306 17.7295 60.5854 17.3714C60.8572 17.0132 60.9931 16.6124 60.9931 16.1689L60.9931 13.0733C60.9931 12.6469 60.8657 12.2546 60.6109 11.8964C60.3561 11.5212 59.9059 11.3336 59.2604 11.3336L57.4511 11.3336C56.8056 11.3336 56.4828 10.9157 56.4828 10.08C56.4828 9.21015 56.8056 8.77523 57.4511 8.77523L59.2604 8.77523Q60.2706 8.77523 60.6137 8.29679L60.6154 8.29449Q60.6262 8.27926 60.6364 8.26355Q60.7818 8.04459 60.8679 7.80434Q60.9931 7.45518 60.9931 7.06112L60.9931 4.45157C60.9931 4.02518 60.8572 3.63289 60.5854 3.27472C60.3306 2.91655 59.8889 2.73746 59.2604 2.73746L57.8589 2.73746C57.2303 2.73746 56.7801 2.91655 56.5083 3.27472C56.2535 3.63289 56.1261 4.02518 56.1261 4.45157L56.1261 5.47492Q56.1261 5.94402 55.8973 6.23011Q55.5396 6.67736 54.6227 6.67736C53.6204 6.67736 53.1192 6.27655 53.1192 5.47492L53.1192 4.22132C53.1192 3.53909 53.2381 2.94213 53.476 2.43046C53.7308 1.90172 54.079 1.47533 54.5207 1.15127L54.4952 1.15127C54.9369 0.861319 55.3956 0.622538 55.8713 0.434923C56.3469 0.247309 56.8056 0.153502 57.2473 0.153502L59.9229 0.153502C60.3476 0.153502 60.7978 0.247309 61.2734 0.434923Q61.9869 0.716345 62.6495 1.15127L62.624 1.15127C63.0657 1.47533 63.4054 1.90172 63.6433 2.43046C63.8811 2.94213 64 3.53909 64 4.22132L64 7.26579C64 8.08447 63.8471 8.74112 63.5413 9.23574C63.4394 9.37218 63.3375 9.51716 63.2355 9.67066C63.1336 9.82416 63.0487 9.94355 62.9807 10.0288L63.3375 10.6428L63.5923 10.9243C63.8641 11.3507 64 11.9988 64 12.8686L64 16.3736C64 17.09 63.8811 17.704 63.6433 18.2156C63.4054 18.7103 63.0657 19.1281 62.624 19.4692C62.1823 19.7933 61.7321 20.0491 61.2734 20.2368C60.8148 20.4073 60.3646 20.4926 59.9229 20.4926L57.2473 20.4926ZM8.06928 4.79695C8.06928 5.39444 7.93815 5.95142 7.70616 6.45777L19.9643 18.7649C20.0981 18.8992 20.1732 19.0811 20.1732 19.2706C20.1732 19.6664 19.8523 19.9873 19.4565 19.9873L18.0353 19.9873C17.4668 19.9873 16.9217 19.7609 16.5205 19.3581L10.0866 12.8985L7.70616 15.2884C7.93815 15.7948 8.06928 16.3518 8.06928 16.9492C8.06928 18.0236 7.6442 19.0539 6.88756 19.8136C6.13092 20.5732 5.10469 21 4.03464 21C2.96459 21 1.93836 20.5732 1.18172 19.8136C0.425077 19.0539 0 18.0236 0 16.9492C0 15.8749 0.425077 14.8446 1.18172 14.0849C1.93836 13.3253 2.96459 12.8985 4.03464 12.8985C4.62975 12.8985 5.18451 13.0301 5.68884 13.263L8.06928 10.8731L5.68884 8.48315C5.18451 8.71607 4.62975 8.84772 4.03464 8.84772C2.96459 8.84772 1.93836 8.42094 1.18172 7.66128C0.425077 6.90161 0 5.87128 0 4.79695C0 3.72263 0.425077 2.6923 1.18172 1.93263C1.93836 1.17297 2.96459 0.746193 4.03464 0.746193C5.10469 0.746193 6.13092 1.17297 6.88756 1.93263C7.6442 2.6923 8.06928 3.72263 8.06928 4.79695ZM12.0999 6.82637L17.1472 1.75888L20.1732 1.75888C20.1732 2.40744 19.9162 3.02957 19.4585 3.48908L14.1253 8.84368C13.5666 9.40454 12.6585 9.40454 12.0999 8.84368C11.5444 8.28596 11.5444 7.38409 12.0999 6.82637ZM2.60818 6.22912C2.9865 6.60895 3.49961 6.82234 4.03464 6.82234C4.56967 6.82234 5.08278 6.60895 5.4611 6.22912C5.83942 5.84928 6.05196 5.33412 6.05196 4.79695C6.05196 4.25979 5.83942 3.74463 5.4611 3.36479C5.08278 2.98496 4.56967 2.77157 4.03464 2.77157C3.49961 2.77157 2.9865 2.98496 2.60818 3.36479C2.22986 3.74463 2.01732 4.25979 2.01732 4.79695C2.01732 5.33412 2.22986 5.84928 2.60818 6.22912ZM29.4784 12.6128C29.3085 12.374 29.2235 12.0841 29.2235 11.7429C29.2235 11.2313 29.4359 10.8219 29.8606 10.5149L29.8351 10.5149C30.1749 10.2761 30.5146 10.1568 30.8544 10.1568C31.1771 10.1568 31.449 10.3444 31.6698 10.7196L36.5878 17.9342L36.5623 17.9086C36.7152 18.1474 36.7917 18.4032 36.7917 18.6761C36.7917 19.1196 36.5708 19.5119 36.1291 19.853L36.1546 19.853C35.9678 19.9724 35.7894 20.0662 35.6195 20.1344C35.4496 20.2026 35.2967 20.2368 35.1608 20.2368Q34.957 20.2368 34.7276 20.0833C34.5917 19.9809 34.4558 19.853 34.3199 19.6995L29.4784 12.6128ZM9.72998 11.2311C9.82456 11.3261 9.95284 11.3794 10.0866 11.3794C10.2204 11.3794 10.3486 11.3261 10.4432 11.2311C10.5378 11.1362 10.5909 11.0074 10.5909 10.8731C10.5909 10.7388 10.5378 10.61 10.4432 10.5151C10.3486 10.4201 10.2204 10.3668 10.0866 10.3668C9.95284 10.3668 9.82456 10.4201 9.72998 10.5151C9.6354 10.61 9.58227 10.7388 9.58227 10.8731C9.58227 11.0074 9.6354 11.1362 9.72998 11.2311ZM2.60818 18.3814C2.9865 18.7612 3.49961 18.9746 4.03464 18.9746C4.56967 18.9746 5.08278 18.7612 5.4611 18.3814C5.83942 18.0016 6.05196 17.4864 6.05196 16.9492C6.05196 16.4121 5.83942 15.8969 5.4611 15.5171C5.08278 15.1372 4.56967 14.9239 4.03464 14.9239C3.49961 14.9239 2.9865 15.1372 2.60818 15.5171C2.22986 15.8969 2.01732 16.4121 2.01732 16.9492C2.01732 17.4864 2.22986 18.0016 2.60818 18.3814Z" fill="rgb(240.549,240.549,240.549)" fill-rule="evenodd" />
</svg>
